<svg xmlns="http://www.w3.org/2000/svg" version="1.1" xmlns:xlink="http://www.w3.org/1999/xlink" xmlns:svgjs="http://svgjs.com/svgjs" width="1440" height="560" preserveAspectRatio="none" viewBox="0 0 1440 560"><g mask="url(&quot;#SvgjsMask1172&quot;)" fill="none"><rect width="1440" height="560" x="0" y="0" fill="url(#SvgjsLinearGradient1173)"></rect><path d="M1440 0L974.13 0L1440 39.13z" fill="rgba(255, 255, 255, .1)"></path><path d="M974.13 0L1440 39.13L1440 138.85L483.32 0z" fill="rgba(255, 255, 255, .075)"></path><path d="M483.31999999999994 0L1440 138.85L1440 142.94L398.3299999999999 0z" fill="rgba(255, 255, 255, .05)"></path><path d="M398.3299999999999 0L1440 142.94L1440 210.99L162.01999999999992 0z" fill="rgba(255, 255, 255, .025)"></path><path d="M0 560L294.78 560L0 540z" fill="rgba(0, 0, 0, .1)"></path><path d="M0 540L294.78 560L823.27 560L0 538.45z" fill="rgba(0, 0, 0, .075)"></path><path d="M0 538.45L823.27 560L1106.33 560L0 470.21000000000004z" fill="rgba(0, 0, 0, .05)"></path><path d="M0 470.21000000000004L1106.33 560L1344.1599999999999 560L0 172.82000000000005z" fill="rgba(0, 0, 0, .025)"></path></g><defs><mask id="SvgjsMask1172"><rect width="1440" height="560" fill="#ffffff"></rect></mask><linearGradient x1="15.28%" y1="-39.29%" x2="84.72%" y2="139.29%" gradientUnits="userSpaceOnUse" id="SvgjsLinearGradient1173"><stop stop-color="rgba(71, 97, 124, 1)" offset="0.03"></stop><stop stop-color="rgba(0, 158, 61, 1)" offset="1"></stop></linearGradient></defs></svg>